<?xml version="1.0" encoding="UTF-8"?>
<svg id="Camada_2" data-name="Camada 2" xmlns="http://www.w3.org/2000/svg" xmlns:xlink="http://www.w3.org/1999/xlink" viewBox="0 0 327.76 319.09">
  <defs>
    <style>
      .cls-1 {
        fill: url(#Gradiente_sem_nome_4);
      }
    </style>
    <linearGradient id="Gradiente_sem_nome_4" data-name="Gradiente sem nome 4" x1="7.9" y1="263.68" x2="285.55" y2="19.35" gradientUnits="userSpaceOnUse">
      <stop offset="0" stop-color="#121212"/>
      <stop offset="1" stop-color="#303030"/>
    </linearGradient>
  </defs>
  <g id="Camada_1-2" data-name="Camada 1">
    <path class="cls-1" d="M127.47,250.5h35.3c45.08-.02,82.65-39.01,83.59-83.55.79-37.66-23.54-70.76-58.7-82.81-6.8-2.33-13.88-3.82-21.01-3.79l-72.22.26c-13.57.05-24.38,12.09-24.39,25.29l-.06,94.98c0,8.34-3.87,15.24-11.43,18.89L5.92,252.07l-3.46.73c-.74.16-1.76-1.29-2.39-2.33L0,34.96C-.23,16.68,13.45.49,32.32.43L169.73,0c38.81-.12,75.16,13.25,104.11,38.91,62.51,55.4,71.79,151.73,21.98,219.1-26.81,36.26-71.35,60.81-117.07,60.93l-58.91.15c-12.23.03-19.77-9.6-19.76-21.26l.07-157.58c0-5.55,3.69-10.28,7.33-12.31,4.79-2.66,10.46-2.87,15.18.21l73.66,48.12c5.56,3.63,8.15,8.85,8,15.09s-3.52,10.69-8.95,14.28l-67.9,44.86Z"/>
  </g>
</svg>