<?xml version="1.0" encoding="UTF-8"?>
<svg id="Camada_2" data-name="Camada 2" xmlns="http://www.w3.org/2000/svg" viewBox="0 0 673.76 561.98">
  <g id="Camada_1-2" data-name="Camada 1">
    <path d="M300.47,250.5h35.3c45.08-.02,82.65-39.01,83.59-83.55.79-37.66-23.54-70.76-58.7-82.81-6.8-2.33-13.88-3.82-21.01-3.79l-72.22.26c-13.57.05-24.38,12.09-24.39,25.29l-.06,94.98c0,8.34-3.87,15.24-11.43,18.89l-52.63,32.3-3.46.73c-.74.16-1.76-1.29-2.39-2.33l-.07-215.51c-.24-18.28,13.44-34.47,32.32-34.53L342.73,0c38.81-.12,75.16,13.25,104.11,38.91,62.51,55.4,71.79,151.73,21.98,219.1-26.81,36.26-71.35,60.81-117.07,60.93l-58.91.15c-12.23.03-19.77-9.6-19.76-21.26l.07-157.58c0-5.55,3.69-10.28,7.33-12.31,4.79-2.66,10.46-2.87,15.18.21l73.66,48.12c5.56,3.63,8.15,8.85,8,15.09s-3.52,10.69-8.95,14.28l-67.9,44.86Z"/>
    <g>
      <path d="M153.21,436.69c6.47,49.46-35.94,91.1-84.17,90.45,0,0-69.04.22-69.04.22,0,0,0-163.82,0-163.82l68,.24c41.87.1,81.74,29.25,85.21,72.9ZM109.98,480.74c28.63-34.75,3.29-90.48-41.97-89.77,0,0-37.53-.23-37.53-.23l.03,109.4c26.9-.6,60.28,4.79,79.48-19.4Z"/>
      <path d="M386.34,561.98l-28.76-.05v-160.72s28.56,0,28.56,0l.54,16.38c11.53-13.92,27.29-19.99,44.66-19.24,34.12,1.48,59.13,28.69,58.54,62.66-.61,34.97-28.05,62.04-63.32,60.84-15.66-.53-29.03-6.18-40.14-18.49l-.09,58.62ZM460.24,459.81c0-20.5-16.62-37.11-37.11-37.11s-37.11,16.62-37.11,37.11,16.62,37.11,37.11,37.11,37.11-16.62,37.11-37.11Z"/>
      <path d="M595.06,527.36l-.06-67.67c-.66-7.36-2.62-14.8-7.9-20.07-7.71-7.69-18.8-9.59-29.31-7.05-12.35,2.98-22.19,13.28-22.26,26.78l-.34,68.04-28.99-.02v-163.7l29.07-.12v61.45c18.35-23.47,55.3-24.45,75.96-4.42,7.67,8.88,12.66,19.92,12.69,32.18l.19,74.61h-29.05Z"/>
      <path d="M261.96,486.9l22.39,13.21c-19.07,27.73-58.84,33.48-87.75,19.02-22.74-11.37-35.35-34.33-33.36-59.47,1.79-22.53,15.12-41.26,35.84-50.44,16.34-7.24,34.47-7.85,51.45-2.28,28.82,11.1,41.74,35.29,39.16,66.02l-97.04-.02c2.06,14.82,13.12,25.4,27.4,28.72,15.9,3.69,32.13-1.1,41.9-14.75ZM261.53,453.55c-1.77-10.47-7.76-18.35-16.67-22.87-10.4-5.27-22.51-5.62-33.19-.85-9.88,4.42-16.73,12.97-18.8,23.67l68.66.04Z"/>
      <rect x="238.92" y="430.73" width="163.64" height="29.27" transform="translate(-124.78 765.88) rotate(-89.97)"/>
      <rect x="594.77" y="451" width="123.56" height="28.71" transform="translate(190.92 1121.72) rotate(-89.98)"/>
      <path d="M673.76,380.49c-.28,9.68-8.79,15.97-17.12,15.96-9.11-.01-17.15-6.63-17.3-16.31s7.87-16.96,17.26-16.9c8.79.06,17.45,7.03,17.16,17.25Z"/>
    </g>
  </g>
</svg>